<svg width="20" height="20" viewBox="0 0 20 20" fill="none" xmlns="http://www.w3.org/2000/svg" class="css-a6h0ks e19gs87l16" data-type="default"><path d="M11.4918 2.5L12.4874 3.99488L14.2484 3.64181L14.5961 5.40388L16.3582 5.75159L16.0051 7.5126L17.5 8.50816L16.4999 10L17.5 11.4918L16.0051 12.4874L16.3582 14.2484L14.5961 14.5961L14.2484 16.3582L12.4874 16.0051L11.4918 17.5L10 16.4999L8.50816 17.5L7.5126 16.0051L5.75159 16.3582L5.40388 14.5961L3.64181 14.2484L3.99488 12.4874L2.5 11.4918L3.50011 10L2.5 8.50816L3.99488 7.5126L3.64181 5.75159L5.40388 5.40388L5.75159 3.64181L7.5126 3.99488L8.50816 2.5L10 3.50011L11.4918 2.5ZM10 5.41184C7.46603 5.41184 5.41184 7.46603 5.41184 10C5.41184 12.534 7.46603 14.5882 10 14.5882C12.534 14.5882 14.5882 12.534 14.5882 10C14.5882 7.46603 12.534 5.41184 10 5.41184ZM10 6.17653C12.1116 6.17653 13.8235 7.88836 13.8235 10C13.8235 12.1116 12.1116 13.8235 10 13.8235C7.88836 13.8235 6.17653 12.1116 6.17653 10C6.17653 7.88836 7.88836 6.17653 10 6.17653Z" fill="#7B858E"></path></svg>